<svg width="291" height="87" viewBox="0 0 291 87" fill="none" xmlns="http://www.w3.org/2000/svg">
<path d="M67.9663 12.8422C67.858 10.7283 68.3744 8.62005 70.9683 11.1324C73.5628 13.6448 74.5602 14.6695 75.4916 15.2645C76.4227 15.8594 76.8218 15.7138 78.0193 15.5155C79.2162 15.3172 79.416 15.2645 80.5134 15.4297C81.6108 15.595 81.4336 15.7272 82.3534 14.8348C83.2739 13.9423 85.2359 11.5291 87.1314 9.74387C89.027 7.95897 90.5922 8.45478 90.5922 11.5952C90.5922 14.7356 89.2362 17.5156 88.9614 20.2893C88.7951 21.9685 88.13 20.9868 87.7639 23.3305C87.4408 25.3998 86.1344 27.8262 85.7686 30.4377C85.4028 33.0493 84.6216 35.8592 84.2276 36.6528C83.8332 37.446 83.9396 37.3806 83.9396 39.0333C83.9396 40.6859 83.9757 40.6466 84.0726 42.0742C84.2725 45.0163 84.2725 46.5371 81.4455 50.9002C78.6185 55.2639 78.419 54.1398 76.8227 56.7847C75.2265 59.4296 74.4946 60.7845 73.9628 61.512C73.4307 62.2392 73.73 61.5778 73.73 62.4706C73.73 63.363 73.5964 72.9165 73.8627 74.0076C74.1291 75.0983 74.3283 76.5527 74.7942 76.718C75.2601 76.8832 77.2551 78.0074 78.2863 78.8337C79.3172 79.6598 79.1013 81.9769 76.2245 82.1722C74.8278 82.2673 70.2885 82.0951 69.2071 79.8256C68.0099 77.3129 66.8278 73.9402 66.5467 71.7926C65.8147 66.2056 64.7503 63.9577 64.7503 63.9577C64.7503 63.9577 65.0903 66.5446 64.3845 70.8999C63.586 75.8252 60.4268 78.7342 60.4268 78.7342C60.4268 78.7342 61.8229 79.2968 61.7567 80.6189C61.6902 81.9411 61.3573 83.0322 54.7387 83.5283C48.1206 84.0241 48.3387 83.363 47.6143 83.3958C46.8899 83.4288 45.4263 83.6605 43.2312 83.9246C41.0361 84.1894 39.5396 83.8258 38.8745 83.9246C38.2094 84.0238 34.418 86.1062 21.2146 85.2137C8.01145 84.3213 4.63513 78.1979 4.63513 72.7004C4.63513 63.8323 11.4605 59.4913 15.2817 59.3454C18.0431 59.2397 21.4954 62.0374 15.7595 62.1431C12.1489 62.2096 8.85568 66.1548 8.85568 72.4366C8.85568 78.7183 14.963 80.4599 21.2827 80.4599C26.9617 80.4599 29.1591 80.8537 30.8419 80.0904C33.869 78.718 34.4002 78.0844 34.5595 76.3422C34.7189 74.6003 35.6748 71.6445 34.7189 62.9872C33.763 54.3303 41.9945 42.0312 50.8105 38.4417C59.6265 34.8523 57.9271 36.0135 59.9449 35.3275C61.9631 34.6412 65.0963 33.1634 65.9462 32.1076C66.7958 31.0517 69.2387 28.9403 69.9293 28.2543C71.2623 26.929 70.9718 26.0353 70.8861 22.9133C70.8745 22.488 70.354 22.2366 69.9293 20.6529C69.5045 19.0691 69.4173 18.1249 68.9394 16.383C68.4657 14.652 67.9983 13.3997 67.97 12.8528L67.9663 12.8422Z" fill="white"/>
<path d="M145.455 45.9091H132.636C132.545 44.8485 132.303 43.8864 131.909 43.0227C131.53 42.1591 131 41.4167 130.318 40.7955C129.652 40.1591 128.841 39.6742 127.886 39.3409C126.932 38.9924 125.848 38.8182 124.636 38.8182C122.515 38.8182 120.72 39.3333 119.25 40.3636C117.795 41.3939 116.689 42.8712 115.932 44.7955C115.189 46.7197 114.818 49.0303 114.818 51.7273C114.818 54.5758 115.197 56.9621 115.955 58.8864C116.727 60.7955 117.841 62.2348 119.295 63.2045C120.75 64.1591 122.5 64.6364 124.545 64.6364C125.712 64.6364 126.758 64.4924 127.682 64.2045C128.606 63.9015 129.409 63.4697 130.091 62.9091C130.773 62.3485 131.326 61.6742 131.75 60.8864C132.189 60.0833 132.485 59.1818 132.636 58.1818L145.455 58.2727C145.303 60.2424 144.75 62.25 143.795 64.2955C142.841 66.3258 141.485 68.2045 139.727 69.9318C137.985 71.6439 135.826 73.0227 133.25 74.0682C130.674 75.1136 127.682 75.6364 124.273 75.6364C120 75.6364 116.167 74.7197 112.773 72.8864C109.394 71.053 106.72 68.3561 104.75 64.7955C102.795 61.2348 101.818 56.8788 101.818 51.7273C101.818 46.5455 102.818 42.1818 104.818 38.6364C106.818 35.0758 109.515 32.3864 112.909 30.5682C116.303 28.7348 120.091 27.8182 124.273 27.8182C127.212 27.8182 129.917 28.2197 132.386 29.0227C134.856 29.8258 137.023 31 138.886 32.5455C140.75 34.0758 142.25 35.9621 143.386 38.2045C144.523 40.447 145.212 43.0152 145.455 45.9091ZM161.097 75.5455C158.869 75.5455 156.9 75.1818 155.188 74.4545C153.491 73.7121 152.157 72.5909 151.188 71.0909C150.218 69.5909 149.733 67.6818 149.733 65.3636C149.733 63.4545 150.059 61.8258 150.71 60.4773C151.362 59.1136 152.271 58 153.438 57.1364C154.604 56.2727 155.96 55.6136 157.506 55.1591C159.066 54.7045 160.748 54.4091 162.551 54.2727C164.506 54.1212 166.074 53.9394 167.256 53.7273C168.453 53.5 169.316 53.1894 169.847 52.7955C170.377 52.3864 170.642 51.8485 170.642 51.1818V51.0909C170.642 50.1818 170.294 49.4848 169.597 49C168.9 48.5152 168.006 48.2727 166.915 48.2727C165.718 48.2727 164.741 48.5379 163.983 49.0682C163.241 49.5833 162.794 50.3788 162.642 51.4545H151.097C151.248 49.3333 151.922 47.3788 153.119 45.5909C154.331 43.7879 156.097 42.3485 158.415 41.2727C160.733 40.1818 163.627 39.6364 167.097 39.6364C169.597 39.6364 171.839 39.9318 173.824 40.5227C175.809 41.0985 177.498 41.9091 178.892 42.9545C180.286 43.9848 181.347 45.197 182.074 46.5909C182.816 47.9697 183.188 49.4697 183.188 51.0909V75H171.46V70.0909H171.188C170.491 71.3939 169.642 72.447 168.642 73.25C167.657 74.053 166.528 74.6364 165.256 75C163.998 75.3636 162.612 75.5455 161.097 75.5455ZM165.188 67.6364C166.142 67.6364 167.036 67.4394 167.869 67.0455C168.718 66.6515 169.407 66.0833 169.938 65.3409C170.468 64.5985 170.733 63.697 170.733 62.6364V59.7273C170.4 59.8636 170.044 59.9924 169.665 60.1136C169.301 60.2348 168.907 60.3485 168.483 60.4545C168.074 60.5606 167.634 60.6591 167.165 60.75C166.71 60.8409 166.233 60.9242 165.733 61C164.763 61.1515 163.968 61.4015 163.347 61.75C162.741 62.0833 162.286 62.5 161.983 63C161.695 63.4848 161.551 64.0303 161.551 64.6364C161.551 65.6061 161.892 66.3485 162.574 66.8636C163.256 67.3788 164.127 67.6364 165.188 67.6364ZM210 40.0909V49.1818H187V40.0909H210ZM191.455 31.7273H204V63.7727C204 64.2576 204.083 64.6667 204.25 65C204.417 65.3182 204.674 65.5606 205.023 65.7273C205.371 65.8788 205.818 65.9545 206.364 65.9545C206.742 65.9545 207.182 65.9091 207.682 65.8182C208.197 65.7273 208.576 65.6515 208.818 65.5909L210.636 74.4091C210.076 74.5758 209.273 74.7803 208.227 75.0227C207.197 75.2652 205.97 75.4242 204.545 75.5C201.667 75.6515 199.25 75.3561 197.295 74.6136C195.341 73.8561 193.871 72.6667 192.886 71.0455C191.902 69.4242 191.424 67.3939 191.455 64.9545V31.7273ZM255.233 28.4545H267.869V58.2727C267.869 61.8182 267.021 64.8864 265.324 67.4773C263.642 70.053 261.294 72.0455 258.278 73.4545C255.263 74.8485 251.763 75.5455 247.778 75.5455C243.763 75.5455 240.248 74.8485 237.233 73.4545C234.218 72.0455 231.869 70.053 230.188 67.4773C228.521 64.8864 227.688 61.8182 227.688 58.2727V28.4545H240.324V57.1818C240.324 58.6212 240.642 59.9091 241.278 61.0455C241.915 62.1667 242.794 63.0455 243.915 63.6818C245.051 64.3182 246.339 64.6364 247.778 64.6364C249.233 64.6364 250.521 64.3182 251.642 63.6818C252.763 63.0455 253.642 62.1667 254.278 61.0455C254.915 59.9091 255.233 58.6212 255.233 57.1818V28.4545ZM286.511 28.4545V75H273.875V28.4545H286.511Z" fill="white"/>
</svg>
